<?xml version="1.0" encoding="UTF-8"?>
<svg id="Layer_2" data-name="Layer 2" xmlns="http://www.w3.org/2000/svg" viewBox="0 0 720.89 527.03">
  <defs>
    <style>
      .cls-1 {
        fill: #72be44;
      }

      .cls-2 {
        fill: #059669;
      }

      .cls-3 {
        fill: #1e293b;
        stroke: #334155;
        stroke-miterlimit: 10;
        stroke-width: 12px;
      }

      .cls-4 {
        fill: #14b8a6;
      }

      .cls-5 {
        fill: #87c440;
      }
    </style>
  </defs>
  <g id="Layer_1-2" data-name="Layer 1">
    <rect class="cls-3" x="6" y="6" width="708.89" height="515.03" rx="48.49" ry="48.49"/>
    <rect class="cls-4" x="136.5" y="248.37" width="102.53" height="237.97" rx="27" ry="27"/>
    <rect class="cls-2" x="308.66" y="168.64" width="102.53" height="317.71" rx="31.2" ry="31.2"/>
    <rect class="cls-4" x="474.29" y="114.58" width="107.97" height="371.76" rx="34.63" ry="34.63"/>
    <g>
      <path class="cls-1" d="M638.62,26.42c-3.78,7.52-8.13,18.67-9.23,32.53-1.54,19.48,4.07,34.97,8.17,43.72-3.29-6.87-9.47-17.21-21.03-27.19-7.52-6.49-15.15-10.97-21.28-14,2.3,5.98,6.26,14,13.27,22.4,9.4,11.27,20.2,18.35,27.51,22.4-6.91-3.02-17.43-6.73-30.9-8.26-8.3-.94-15.62-.82-21.47-.36,4.68,2.97,13.82,7.93,26.86,10.04,10.2,1.65,18.79.91,24.16.09-4.66.91-7.47,2.52-9.17,3.82-2.98,2.27-3.92,4.6-9.01,9.2-1.01.91-1.87,1.63-2.43,2.09,2.98-.58,7.24-1.71,11.7-4.09,6.72-3.58,10.43-8.11,12.19-10.66.22-.65.44-1.29.65-1.94h0s0-79.78,0-79.78h0Z"/>
      <path class="cls-5" d="M666.73,107.7c13.04-2.11,22.18-7.08,26.86-10.04-5.84-.46-13.16-.59-21.47.36-13.47,1.53-24,5.24-30.9,8.26,7.3-4.04,18.11-11.13,27.51-22.4,7.01-8.4,10.97-16.41,13.27-22.4-6.13,3.02-13.76,7.5-21.28,14-11.56,9.99-17.75,20.32-21.03,27.19,4.1-8.75,9.71-24.24,8.17-43.72-1.1-13.86-5.45-25.01-9.23-32.53v79.78c.22.65.44,1.29.65,1.94,1.76,2.55,5.47,7.09,12.19,10.66,4.46,2.38,8.72,3.51,11.7,4.09-.56-.46-1.42-1.18-2.43-2.09-5.09-4.6-6.03-6.93-9.01-9.2-1.7-1.3-4.51-2.91-9.17-3.82,5.37.82,13.96,1.56,24.16-.09Z"/>
    </g>
  </g>
</svg>